<svg width="24" height="24" viewBox="0 0 24 24" fill="none" xmlns="http://www.w3.org/2000/svg">
<path d="M21.3103 7.25415L17.1216 3.06446C16.9823 2.92514 16.8169 2.81462 16.6349 2.73921C16.4529 2.66381 16.2578 2.625 16.0608 2.625C15.8638 2.625 15.6687 2.66381 15.4867 2.73921C15.3047 2.81462 15.1393 2.92514 15 3.06446L3.43969 14.6257C3.2998 14.7645 3.18889 14.9297 3.11341 15.1117C3.03792 15.2938 2.99938 15.489 3.00001 15.686V19.8757C3.00001 20.2735 3.15804 20.6551 3.43935 20.9364C3.72065 21.2177 4.10218 21.3757 4.50001 21.3757H8.6897C8.88675 21.3763 9.08197 21.3378 9.26399 21.2623C9.44602 21.1868 9.61122 21.0759 9.75001 20.936L21.3103 9.37571C21.4496 9.23642 21.5602 9.07104 21.6356 8.88903C21.711 8.70702 21.7498 8.51194 21.7498 8.31493C21.7498 8.11792 21.711 7.92284 21.6356 7.74082C21.5602 7.55881 21.4496 7.39344 21.3103 7.25415ZM8.6897 19.8757H4.50001V15.686L12.75 7.43602L16.9397 11.6257L8.6897 19.8757ZM18 10.5645L13.8103 6.37571L16.0603 4.12571L20.25 8.31446L18 10.5645Z" fill="#D89593"/>
</svg>
