<svg width="24" height="24" viewBox="0 0 24 24" fill="none" xmlns="http://www.w3.org/2000/svg">
<path d="M14.0449 3.37671C14.0449 3.61705 13.8582 3.81732 13.6196 3.83011C9.2985 4.05169 5.86301 7.62538 5.86301 12.0008C5.86301 16.3762 9.2985 19.95 13.6196 20.1715C13.8591 20.1843 14.0449 20.3854 14.0449 20.6249C14.0449 20.8874 13.8233 21.0919 13.5616 21.0783C8.77277 20.8269 4.95459 16.8519 4.95459 12.0008C4.95459 7.14979 8.77277 3.17473 13.5616 2.92252C13.8233 2.90888 14.0449 3.11421 14.0449 3.37671ZM18.9123 11.6796L15.7308 8.49809C15.5535 8.32081 15.2654 8.32081 15.0882 8.49809C14.9109 8.67536 14.9109 8.96343 15.0882 9.1407L17.4932 11.5457L9.9539 11.5466C9.70334 11.5466 9.49964 11.7503 9.49964 12.0008C9.49964 12.2514 9.70334 12.4551 9.9539 12.4551H17.4932L15.0882 14.8601C14.9109 15.0374 14.9109 15.3254 15.0882 15.5027C15.1759 15.5922 15.2927 15.6374 15.4086 15.6374C15.5254 15.6374 15.6413 15.5931 15.7308 15.5044L18.9123 12.3229C19.0896 12.1448 19.0896 11.8569 18.9123 11.6796Z" fill="#D89593" stroke="#D89593"/>
</svg>
