<svg width="40" height="40" viewBox="0 0 40 40" fill="none" xmlns="http://www.w3.org/2000/svg">
<rect width="40" height="40" rx="20" fill="#D89593" fill-opacity="0.2"/>
<path d="M20 18.4375C19.3434 18.4377 18.7087 18.6742 18.2121 19.1038C17.7155 19.5334 17.39 20.1273 17.2952 20.7771C17.2004 21.4269 17.3426 22.089 17.6958 22.6426C18.0489 23.1962 18.5895 23.6042 19.2188 23.792V25.4688C19.2188 25.676 19.3011 25.8747 19.4476 26.0212C19.5941 26.1677 19.7928 26.25 20 26.25C20.2072 26.25 20.4059 26.1677 20.5524 26.0212C20.6989 25.8747 20.7812 25.676 20.7812 25.4688V23.792C21.4105 23.6042 21.9511 23.1962 22.3042 22.6426C22.6574 22.089 22.7996 21.4269 22.7048 20.7771C22.61 20.1273 22.2845 19.5334 21.7879 19.1038C21.2913 18.6742 20.6566 18.4377 20 18.4375ZM20 22.3438C19.7682 22.3438 19.5417 22.275 19.3489 22.1463C19.1562 22.0175 19.006 21.8345 18.9173 21.6203C18.8286 21.4062 18.8054 21.1706 18.8506 20.9433C18.8959 20.7159 19.0075 20.5071 19.1714 20.3432C19.3352 20.1793 19.5441 20.0677 19.7714 20.0225C19.9987 19.9773 20.2343 20.0005 20.4485 20.0892C20.6626 20.1779 20.8456 20.3281 20.9744 20.5208C21.1031 20.7135 21.1719 20.9401 21.1719 21.1719C21.1719 21.4827 21.0484 21.7807 20.8286 22.0005C20.6089 22.2203 20.3108 22.3438 20 22.3438ZM27.8125 15.3125H24.6875V12.9688C24.6875 11.7255 24.1936 10.5333 23.3146 9.65419C22.4355 8.77511 21.2432 8.28125 20 8.28125C18.7568 8.28125 17.5645 8.77511 16.6854 9.65419C15.8064 10.5333 15.3125 11.7255 15.3125 12.9688V15.3125H12.1875C11.7731 15.3125 11.3757 15.4771 11.0826 15.7701C10.7896 16.0632 10.625 16.4606 10.625 16.875V27.8125C10.625 28.2269 10.7896 28.6243 11.0826 28.9174C11.3757 29.2104 11.7731 29.375 12.1875 29.375H27.8125C28.2269 29.375 28.6243 29.2104 28.9174 28.9174C29.2104 28.6243 29.375 28.2269 29.375 27.8125V16.875C29.375 16.4606 29.2104 16.0632 28.9174 15.7701C28.6243 15.4771 28.2269 15.3125 27.8125 15.3125ZM16.875 12.9688C16.875 12.1399 17.2042 11.3451 17.7903 10.759C18.3763 10.173 19.1712 9.84375 20 9.84375C20.8288 9.84375 21.6237 10.173 22.2097 10.759C22.7958 11.3451 23.125 12.1399 23.125 12.9688V15.3125H16.875V12.9688ZM27.8125 27.8125H12.1875V16.875H27.8125V27.8125Z" fill="#D89593"/>
</svg>
