<svg width="40" height="40" viewBox="0 0 40 40" fill="none" xmlns="http://www.w3.org/2000/svg">
<rect width="40" height="40" rx="20" fill="#D89593" fill-opacity="0.2"/>
<path d="M19.9989 8.63672C17.0514 8.63672 14.6519 11.0426 14.6519 13.9901C14.6519 16.9367 17.0523 19.3372 19.9989 19.3372C22.9464 19.3372 25.3523 16.9367 25.3523 13.9901C25.3523 11.0435 22.9464 8.63672 19.9989 8.63672ZM19.9989 10.0572C22.1784 10.0572 23.9319 11.8105 23.9319 13.9901C23.9319 16.1696 22.1785 17.9167 19.9989 17.9167C17.8193 17.9167 16.0678 16.1687 16.0678 13.9901C16.0678 11.8106 17.8194 10.0572 19.9989 10.0572ZM19.9989 19.9933C14.6901 19.9933 10.3939 24.2892 10.3939 29.5983V30.6565C10.3948 30.8447 10.4703 31.025 10.6043 31.1581C10.7384 31.2904 10.9186 31.365 11.1077 31.3641C11.4983 31.3632 11.8144 31.0472 11.8161 30.6565V29.5983C11.8161 25.0519 15.4525 21.4138 19.9989 21.4138C24.5452 21.4138 28.1834 25.0519 28.1834 29.5983V30.6565C28.1843 30.8447 28.2598 31.025 28.3929 31.1581C28.527 31.2904 28.7081 31.365 28.8963 31.3641C29.2869 31.3632 29.6039 31.0472 29.6056 30.6565V29.5983C29.6056 24.2894 25.3088 19.9933 19.9997 19.9933L19.9989 19.9933Z" fill="#D89593" stroke="#D89593" stroke-width="0.2"/>
</svg>
