<svg width="24" height="24" viewBox="0 0 24 24" fill="none" xmlns="http://www.w3.org/2000/svg">
<path d="M21 4.49921V8.99921C21 9.19813 20.921 9.38889 20.7803 9.52954C20.6397 9.6702 20.4489 9.74921 20.25 9.74921H15.75C15.5511 9.74921 15.3603 9.6702 15.2197 9.52954C15.079 9.38889 15 9.19813 15 8.99921C15 8.8003 15.079 8.60954 15.2197 8.46888C15.3603 8.32823 15.5511 8.24921 15.75 8.24921H18.4397L17.0681 6.87765C15.6742 5.47741 13.7817 4.68742 11.8059 4.68109H11.7638C9.80454 4.6765 7.92227 5.44335 6.52406 6.81578C6.38083 6.94948 6.19096 7.02183 5.99507 7.01734C5.79918 7.01284 5.61283 6.93187 5.47588 6.79173C5.33893 6.6516 5.26226 6.46343 5.26227 6.26749C5.26228 6.07155 5.33897 5.8834 5.47594 5.74328C7.1705 4.08709 9.44983 3.16598 11.8193 3.17984C14.1887 3.19371 16.4571 4.14143 18.1322 5.81734L19.5 7.1889V4.49921C19.5 4.3003 19.579 4.10954 19.7197 3.96888C19.8603 3.82823 20.0511 3.74921 20.25 3.74921C20.4489 3.74921 20.6397 3.82823 20.7803 3.96888C20.921 4.10954 21 4.3003 21 4.49921ZM17.4759 17.1827C16.0639 18.5619 14.1651 19.329 12.1912 19.3174C10.2173 19.3058 8.32762 18.5165 6.93188 17.1208L5.56031 15.7492H8.25C8.44891 15.7492 8.63968 15.6702 8.78033 15.5295C8.92098 15.3889 9 15.1981 9 14.9992C9 14.8003 8.92098 14.6095 8.78033 14.4689C8.63968 14.3282 8.44891 14.2492 8.25 14.2492H3.75C3.55109 14.2492 3.36032 14.3282 3.21967 14.4689C3.07902 14.6095 3 14.8003 3 14.9992V19.4992C3 19.6981 3.07902 19.8889 3.21967 20.0295C3.36032 20.1702 3.55109 20.2492 3.75 20.2492C3.94891 20.2492 4.13968 20.1702 4.28033 20.0295C4.42098 19.8889 4.5 19.6981 4.5 19.4992V16.8095L5.87156 18.1811C7.54426 19.8622 9.816 20.8104 12.1875 20.8173H12.2372C14.5885 20.8234 16.8476 19.9029 18.525 18.2552C18.662 18.115 18.7387 17.9269 18.7387 17.7309C18.7387 17.535 18.662 17.3468 18.5251 17.2067C18.3881 17.0666 18.2018 16.9856 18.0059 16.9811C17.81 16.9766 17.6201 17.0489 17.4769 17.1827H17.4759Z" fill="white"/>
</svg>
