<svg width="24" height="24" viewBox="0 0 24 24" fill="none" xmlns="http://www.w3.org/2000/svg">
<path d="M2.8275 5.07488C3.91617 3.98942 5.39014 3.37887 6.92748 3.37658C8.46483 3.3743 9.94061 3.98047 11.0325 5.06269L12 5.96082L12.9675 5.06269C14.059 3.9739 15.5384 3.3633 17.0801 3.36524C18.6218 3.36717 20.0996 3.98148 21.1884 5.07301C22.2772 6.16454 22.8878 7.64389 22.8859 9.18561C22.884 10.7273 22.2697 12.2051 21.1781 13.2939L12.8016 21.7924C12.6969 21.8987 12.5721 21.9831 12.4345 22.0407C12.2969 22.0983 12.1492 22.128 12 22.128C11.8508 22.128 11.7031 22.0983 11.5655 22.0407C11.4279 21.9831 11.3031 21.8987 11.1984 21.7924L2.8275 13.2996C2.28749 12.7598 1.85913 12.1189 1.56686 11.4136C1.2746 10.7082 1.12418 9.95215 1.12418 9.18863C1.12418 8.42511 1.2746 7.66908 1.56686 6.96371C1.85913 6.25834 2.28749 5.61747 2.8275 5.07769V5.07488ZM4.42125 11.7114L12 19.3971L19.5816 11.7049C20.2474 11.0363 20.6208 10.1309 20.6198 9.18735C20.6188 8.24379 20.2435 7.33917 19.5763 6.67197C18.9092 6.00478 18.0045 5.62952 17.061 5.62854C16.1174 5.62756 15.212 6.00095 14.5434 6.66676C14.5341 6.67613 14.5247 6.68551 14.5144 6.69394L12.7669 8.32144C12.5586 8.51545 12.2846 8.62332 12 8.62332C11.7154 8.62332 11.4414 8.51545 11.2331 8.32144L9.48562 6.69394C9.47531 6.68551 9.46593 6.67613 9.45656 6.66676C9.12532 6.33632 8.73224 6.07436 8.29976 5.89583C7.86728 5.71731 7.40388 5.62571 6.936 5.62628C6.46812 5.62684 6.00494 5.71956 5.5729 5.89913C5.14085 6.0787 4.74841 6.34161 4.41796 6.67285C4.08753 7.00409 3.82557 7.39717 3.64704 7.82965C3.46852 8.26213 3.37692 8.72553 3.37749 9.19341C3.37805 9.66129 3.47077 10.1245 3.65034 10.5565C3.82991 10.9886 4.09282 11.381 4.42406 11.7114H4.42125Z" fill="#D89593" stroke="white" stroke-width="0.5"/>
</svg>
