<svg width="30" height="30" viewBox="0 0 30 30" fill="none" xmlns="http://www.w3.org/2000/svg">
<rect x="29.5" y="0.5" width="29" height="29" rx="14.5" transform="rotate(90 29.5 0.5)" fill="#F3F1EF"/>
<rect x="29.5" y="0.5" width="29" height="29" rx="14.5" transform="rotate(90 29.5 0.5)" stroke="#D9D9D9"/>
<path d="M9.08689 12.3719C9.02777 12.3128 8.95758 12.2659 8.88033 12.234C8.80309 12.202 8.7203 12.1855 8.63669 12.1855C8.55307 12.1855 8.47028 12.202 8.39304 12.234C8.31579 12.2659 8.2456 12.3128 8.18648 12.3719C8.12736 12.4309 8.08046 12.5011 8.04846 12.5783C8.01647 12.6554 8 12.7382 8 12.8217C8 12.9053 8.01647 12.988 8.04846 13.0652C8.08046 13.1424 8.12736 13.2125 8.18648 13.2716L14.5498 19.6299C14.6089 19.689 14.6791 19.7359 14.7563 19.7679C14.8336 19.7999 14.9164 19.8164 15 19.8164C15.0836 19.8164 15.1664 19.7999 15.2437 19.7679C15.3209 19.7359 15.3911 19.689 15.4502 19.6299L21.8135 13.2716C21.9329 13.1523 22 12.9904 22 12.8217C22 12.653 21.9329 12.4912 21.8135 12.3719C21.6941 12.2526 21.5322 12.1855 21.3633 12.1855C21.1945 12.1855 21.0325 12.2526 20.9131 12.3719L15 18.2812L9.08689 12.3719Z" fill="#101010" stroke="#101010" stroke-width="0.8"/>
</svg>
