<svg width="9" height="15" viewBox="0 0 9 15" fill="none" xmlns="http://www.w3.org/2000/svg">
<path d="M7.84456 13.3135C7.90364 13.3726 7.9505 13.4428 7.98247 13.5201C8.01444 13.5973 8.0309 13.6801 8.0309 13.7637C8.0309 13.8473 8.01444 13.9301 7.98247 14.0074C7.9505 14.0846 7.90364 14.1548 7.84456 14.2139C7.78549 14.273 7.71536 14.3199 7.63817 14.3519C7.56098 14.3839 7.47826 14.4004 7.39471 14.4004C7.31116 14.4004 7.22844 14.3839 7.15125 14.3519C7.07407 14.3199 7.00393 14.273 6.94486 14.2139L0.586506 7.85059C0.527388 7.7915 0.48049 7.72132 0.448492 7.64407C0.416494 7.56682 0.400024 7.48401 0.400024 7.40039C0.400024 7.31677 0.416494 7.23396 0.448492 7.15671C0.48049 7.07946 0.527388 7.00928 0.586506 6.95019L6.94486 0.586871C7.06417 0.46747 7.22598 0.400391 7.39471 0.400391C7.56344 0.400391 7.72526 0.46747 7.84456 0.586871C7.96387 0.706273 8.0309 0.868216 8.0309 1.03708C8.0309 1.20594 7.96387 1.36788 7.84456 1.48728L1.93527 7.40039L7.84456 13.3135Z" fill="#101010" stroke="#101010" stroke-width="0.8"/>
</svg>
