<svg width="9" height="15" viewBox="0 0 9 15" fill="none" xmlns="http://www.w3.org/2000/svg">
<path d="M0.586222 13.3135C0.527147 13.3726 0.480286 13.4428 0.448315 13.5201C0.416343 13.5973 0.399887 13.6801 0.399887 13.7637C0.399887 13.8473 0.416343 13.9301 0.448315 14.0074C0.480286 14.0846 0.527147 14.1548 0.586222 14.2139C0.645298 14.273 0.715431 14.3199 0.792617 14.3519C0.869803 14.3839 0.95253 14.4004 1.03608 14.4004C1.11962 14.4004 1.20235 14.3839 1.27953 14.3519C1.35672 14.3199 1.42685 14.273 1.48593 14.2139L7.84428 7.85059C7.9034 7.7915 7.9503 7.72132 7.98229 7.64407C8.01429 7.56682 8.03076 7.48401 8.03076 7.40039C8.03076 7.31677 8.01429 7.23396 7.98229 7.15671C7.9503 7.07946 7.9034 7.00928 7.84428 6.95019L1.48593 0.586871C1.36662 0.46747 1.2048 0.400391 1.03608 0.400391C0.867348 0.400391 0.705531 0.46747 0.586222 0.586871C0.466914 0.706273 0.399887 0.868216 0.399887 1.03708C0.399887 1.20594 0.466914 1.36788 0.586222 1.48728L6.49551 7.40039L0.586222 13.3135Z" fill="#101010" stroke="#101010" stroke-width="0.8"/>
</svg>
