<svg width="9" height="15" viewBox="0 0 9 15" fill="none" xmlns="http://www.w3.org/2000/svg">
<path d="M0.586344 13.3135C0.527269 13.3726 0.480408 13.4428 0.448437 13.5201C0.416465 13.5973 0.400009 13.6801 0.400009 13.7637C0.400009 13.8473 0.416465 13.9301 0.448437 14.0074C0.480408 14.0846 0.527269 14.1548 0.586344 14.2139C0.64542 14.273 0.715553 14.3199 0.792739 14.3519C0.869925 14.3839 0.952652 14.4004 1.0362 14.4004C1.11974 14.4004 1.20247 14.3839 1.27966 14.3519C1.35684 14.3199 1.42698 14.273 1.48605 14.2139L7.8444 7.85059C7.90352 7.7915 7.95042 7.72132 7.98242 7.64407C8.01441 7.56682 8.03088 7.48401 8.03088 7.40039C8.03088 7.31677 8.01441 7.23396 7.98242 7.15671C7.95042 7.07946 7.90352 7.00928 7.8444 6.95019L1.48605 0.586871C1.36674 0.46747 1.20493 0.400391 1.0362 0.400391C0.86747 0.400391 0.705653 0.46747 0.586344 0.586871C0.467036 0.706273 0.400009 0.868216 0.400009 1.03708C0.400009 1.20594 0.467036 1.36788 0.586344 1.48728L6.49564 7.40039L0.586344 13.3135Z" fill="#101010" stroke="#101010" stroke-width="0.8"/>
</svg>
