<svg width="15" height="13" viewBox="0 0 15 13" fill="none" xmlns="http://www.w3.org/2000/svg">
<path d="M14.5087 9.46422C14.5586 9.51398 14.5981 9.57306 14.625 9.6381C14.652 9.70314 14.6659 9.77286 14.6659 9.84327C14.6659 9.91367 14.652 9.98339 14.625 10.0484C14.5981 10.1135 14.5586 10.1726 14.5087 10.2223L12.9015 11.8296C12.8265 11.9046 12.731 11.9557 12.6271 11.9764C12.5231 11.9971 12.4153 11.9865 12.3173 11.9459C12.2194 11.9053 12.1357 11.8366 12.0768 11.7484C12.018 11.6602 11.9866 11.5566 11.9867 11.4505V10.379C11.23 10.3684 10.4865 10.1802 9.81587 9.82961C9.14527 9.47902 8.56639 8.97582 8.12587 8.36056L5.33189 4.44953C4.9846 3.96405 4.52662 3.5683 3.9959 3.29508C3.46519 3.02186 2.877 2.87903 2.28009 2.87843H0.735769C0.593678 2.87843 0.457406 2.82198 0.356932 2.72151C0.256458 2.62103 0.200012 2.48476 0.200012 2.34267C0.200012 2.20058 0.256458 2.06431 0.356932 1.96383C0.457406 1.86336 0.593678 1.80691 0.735769 1.80691H2.28009C3.04749 1.80755 3.80369 1.99104 4.48604 2.34217C5.16839 2.6933 5.75725 3.20198 6.20384 3.82605L8.99781 7.73707C9.33885 8.21396 9.7868 8.60439 10.3058 8.87709C10.8248 9.1498 11.4005 9.2972 11.9867 9.30751V8.236C11.9866 8.12997 12.018 8.02631 12.0768 7.93812C12.1357 7.84994 12.2194 7.78121 12.3173 7.74062C12.4153 7.70004 12.5231 7.68943 12.6271 7.71013C12.731 7.73084 12.8265 7.78193 12.9015 7.85695L14.5087 9.46422ZM8.1694 4.6866C8.22665 4.7275 8.2914 4.75672 8.35994 4.77259C8.42848 4.78847 8.49948 4.79068 8.56888 4.77912C8.63829 4.76755 8.70473 4.74242 8.76442 4.70518C8.82411 4.66793 8.87588 4.6193 8.91678 4.56204L8.99714 4.4502C9.3381 3.97297 9.7861 3.58223 10.3052 3.30929C10.8244 3.03634 11.4002 2.88878 11.9867 2.87843V3.94994C11.9866 4.05596 12.018 4.15963 12.0768 4.24781C12.1357 4.33599 12.2194 4.40473 12.3173 4.44531C12.4153 4.4859 12.5231 4.49651 12.6271 4.4758C12.731 4.45509 12.8265 4.404 12.9015 4.32899L14.5087 2.72172C14.5586 2.67196 14.5981 2.61287 14.625 2.54783C14.652 2.48279 14.6659 2.41308 14.6659 2.34267C14.6659 2.27226 14.652 2.20255 14.625 2.13751C14.5981 2.07247 14.5586 2.01338 14.5087 1.96362L12.9015 0.35635C12.8265 0.281338 12.731 0.230244 12.6271 0.209537C12.5231 0.188829 12.4153 0.19944 12.3173 0.240025C12.2194 0.28061 12.1357 0.349344 12.0768 0.437526C12.018 0.525709 11.9866 0.629374 11.9867 0.735398V1.80691C11.23 1.81754 10.4865 2.00573 9.81587 2.35632C9.14527 2.70692 8.56639 3.21011 8.12587 3.82538L8.0455 3.93722C8.00426 3.99449 7.97474 4.05936 7.95864 4.12808C7.94255 4.1968 7.94019 4.26802 7.9517 4.33766C7.96321 4.4073 7.98837 4.47397 8.02573 4.53385C8.06309 4.59374 8.11191 4.64565 8.1694 4.6866ZM6.16031 7.49933C6.10306 7.45843 6.03831 7.42921 5.96976 7.41334C5.90122 7.39747 5.83022 7.39525 5.76082 7.40682C5.69142 7.41839 5.62497 7.44351 5.56528 7.48075C5.50559 7.518 5.45382 7.56664 5.41293 7.62389L5.33256 7.73573C4.98527 8.22143 4.52722 8.61736 3.99637 8.89071C3.46553 9.16405 2.87718 9.30693 2.28009 9.30751H0.735769C0.593678 9.30751 0.457406 9.36395 0.356932 9.46443C0.256458 9.5649 0.200012 9.70117 0.200012 9.84327C0.200012 9.98536 0.256458 10.1216 0.356932 10.2221C0.457406 10.3226 0.593678 10.379 0.735769 10.379H2.28009C3.04749 10.3784 3.80369 10.1949 4.48604 9.84376C5.16839 9.49263 5.75725 8.98396 6.20384 8.35989L6.2842 8.24805C6.32534 8.19079 6.35477 8.12598 6.37081 8.05733C6.38685 7.98867 6.38918 7.91753 6.37768 7.84797C6.36617 7.77841 6.34104 7.71181 6.30374 7.65199C6.26644 7.59216 6.2177 7.54028 6.16031 7.49933Z" fill="white" stroke="white" stroke-width="0.4"/>
</svg>
