<svg width="30" height="30" viewBox="0 0 30 30" fill="none" xmlns="http://www.w3.org/2000/svg">
<path d="M19.4133 11.9133L16.3254 15L19.4133 18.0867C19.5004 18.1738 19.5695 18.2772 19.6166 18.391C19.6638 18.5048 19.688 18.6268 19.688 18.75C19.688 18.8732 19.6638 18.9952 19.6166 19.109C19.5695 19.2228 19.5004 19.3262 19.4133 19.4133C19.3262 19.5004 19.2228 19.5695 19.109 19.6166C18.9952 19.6638 18.8732 19.688 18.75 19.688C18.6268 19.688 18.5048 19.6638 18.391 19.6166C18.2772 19.5695 18.1738 19.5004 18.0867 19.4133L15 16.3254L11.9133 19.4133C11.8262 19.5004 11.7228 19.5695 11.609 19.6166C11.4952 19.6638 11.3732 19.688 11.25 19.688C11.1268 19.688 11.0048 19.6638 10.891 19.6166C10.7772 19.5695 10.6738 19.5004 10.5867 19.4133C10.4996 19.3262 10.4305 19.2228 10.3834 19.109C10.3362 18.9952 10.312 18.8732 10.312 18.75C10.312 18.6268 10.3362 18.5048 10.3834 18.391C10.4305 18.2772 10.4996 18.1738 10.5867 18.0867L13.6746 15L10.5867 11.9133C10.4108 11.7374 10.312 11.4988 10.312 11.25C10.312 11.0012 10.4108 10.7626 10.5867 10.5867C10.7626 10.4108 11.0012 10.312 11.25 10.312C11.4988 10.312 11.7374 10.4108 11.9133 10.5867L15 13.6746L18.0867 10.5867C18.1738 10.4996 18.2772 10.4305 18.391 10.3834C18.5048 10.3362 18.6268 10.312 18.75 10.312C18.8732 10.312 18.9952 10.3362 19.109 10.3834C19.2228 10.4305 19.3262 10.4996 19.4133 10.5867C19.5004 10.6738 19.5695 10.7772 19.6166 10.891C19.6638 11.0048 19.688 11.1268 19.688 11.25C19.688 11.3732 19.6638 11.4952 19.6166 11.609C19.5695 11.7228 19.5004 11.8262 19.4133 11.9133ZM27.1875 15C27.1875 17.4105 26.4727 19.7668 25.1335 21.771C23.7944 23.7752 21.8909 25.3373 19.664 26.2598C17.437 27.1822 14.9865 27.4236 12.6223 26.9533C10.2582 26.4831 8.08659 25.3223 6.38214 23.6179C4.67769 21.9134 3.51694 19.7418 3.04668 17.3777C2.57643 15.0135 2.81778 12.563 3.74022 10.336C4.66267 8.10907 6.22477 6.20564 8.22899 4.86646C10.2332 3.52728 12.5895 2.8125 15 2.8125C18.2313 2.81591 21.3292 4.10104 23.6141 6.3859C25.899 8.67076 27.1841 11.7687 27.1875 15ZM25.3125 15C25.3125 12.9604 24.7077 10.9666 23.5745 9.27068C22.4414 7.5748 20.8308 6.25302 18.9464 5.47249C17.0621 4.69196 14.9886 4.48774 12.9881 4.88565C10.9877 5.28356 9.1502 6.26573 7.70797 7.70796C6.26574 9.15019 5.28357 10.9877 4.88566 12.9881C4.48775 14.9886 4.69197 17.0621 5.4725 18.9464C6.25303 20.8308 7.57481 22.4414 9.27069 23.5745C10.9666 24.7077 12.9604 25.3125 15 25.3125C17.7341 25.3094 20.3553 24.2219 22.2886 22.2886C24.2219 20.3553 25.3094 17.7341 25.3125 15Z" fill="black"/>
</svg>
