<svg width="29" height="29" viewBox="0 0 29 29" fill="none" xmlns="http://www.w3.org/2000/svg">
<g clip-path="url(#clip0_2228_3264)">
<path d="M28.5469 14.5C28.5469 6.74023 22.2598 0.453125 14.5 0.453125C6.74023 0.453125 0.453125 6.74023 0.453125 14.5C0.453125 21.511 5.58986 27.3223 12.3052 28.377V18.5606H8.73682V14.5H12.3052V11.4052C12.3052 7.88494 14.4009 5.94047 17.6107 5.94047C19.1479 5.94047 20.7554 6.21461 20.7554 6.21461V9.66969H18.9837C17.2391 9.66969 16.6948 10.7527 16.6948 11.8634V14.5H20.5906L19.9675 18.5606H16.6948V28.377C23.4101 27.3223 28.5469 21.511 28.5469 14.5Z" fill="#101010" fill-opacity="0.6"/>
</g>
<defs>
<clipPath id="clip0_2228_3264">
<rect width="29" height="29" fill="white"/>
</clipPath>
</defs>
</svg>
