<svg width="29" height="29" viewBox="0 0 29 29" fill="none" xmlns="http://www.w3.org/2000/svg">
<path d="M14.5053 7.98745C10.9029 7.98745 7.99727 10.8931 7.99727 14.4955C7.99727 18.0978 10.9029 21.0035 14.5053 21.0035C18.1076 21.0035 21.0133 18.0978 21.0133 14.4955C21.0133 10.8931 18.1076 7.98745 14.5053 7.98745ZM14.5053 18.7265C12.1773 18.7265 10.2742 16.8291 10.2742 14.4955C10.2742 12.1619 12.1717 10.2644 14.5053 10.2644C16.8389 10.2644 18.7363 12.1619 18.7363 14.4955C18.7363 16.8291 16.8332 18.7265 14.5053 18.7265ZM22.7975 7.72124C22.7975 8.56519 22.1178 9.23921 21.2795 9.23921C20.4355 9.23921 19.7615 8.55952 19.7615 7.72124C19.7615 6.88296 20.4412 6.20327 21.2795 6.20327C22.1178 6.20327 22.7975 6.88296 22.7975 7.72124ZM27.1078 9.26187C27.0115 7.22847 26.5471 5.4273 25.0574 3.94331C23.5734 2.45933 21.7723 1.99487 19.7389 1.89292C17.6432 1.77397 11.3617 1.77397 9.26602 1.89292C7.23828 1.98921 5.43711 2.45366 3.94746 3.93765C2.45781 5.42163 1.99902 7.2228 1.89707 9.2562C1.77812 11.3519 1.77812 17.6334 1.89707 19.7291C1.99336 21.7625 2.45781 23.5636 3.94746 25.0476C5.43711 26.5316 7.23262 26.996 9.26602 27.098C11.3617 27.2169 17.6432 27.2169 19.7389 27.098C21.7723 27.0017 23.5734 26.5373 25.0574 25.0476C26.5414 23.5636 27.0059 21.7625 27.1078 19.7291C27.2268 17.6334 27.2268 11.3576 27.1078 9.26187ZM24.4004 21.9777C23.9586 23.0878 23.1033 23.9431 21.9875 24.3906C20.3166 25.0533 16.3518 24.9003 14.5053 24.9003C12.6588 24.9003 8.68828 25.0476 7.02305 24.3906C5.91289 23.9488 5.05762 23.0935 4.61016 21.9777C3.94746 20.3068 4.10039 16.3419 4.10039 14.4955C4.10039 12.649 3.95313 8.67847 4.61016 7.01323C5.05195 5.90308 5.90723 5.0478 7.02305 4.60034C8.69395 3.93765 12.6588 4.09058 14.5053 4.09058C16.3518 4.09058 20.3223 3.94331 21.9875 4.60034C23.0977 5.04214 23.9529 5.89741 24.4004 7.01323C25.0631 8.68413 24.9102 12.649 24.9102 14.4955C24.9102 16.3419 25.0631 20.3125 24.4004 21.9777Z" fill="#101010" fill-opacity="0.6"/>
</svg>
