<svg width="29" height="29" viewBox="0 0 29 29" fill="none" xmlns="http://www.w3.org/2000/svg">
<g clip-path="url(#clip0_2228_3262)">
<path d="M26.019 8.59353C26.0374 8.85113 26.0374 9.10879 26.0374 9.36639C26.0374 17.2236 20.0571 26.2769 9.1269 26.2769C5.7595 26.2769 2.63135 25.3016 0 23.6088C0.478443 23.664 0.938422 23.6824 1.43527 23.6824C4.21378 23.6824 6.77156 22.7439 8.81407 21.1431C6.20113 21.0878 4.0114 19.3765 3.25695 17.0212C3.625 17.0764 3.99299 17.1132 4.37945 17.1132C4.91306 17.1132 5.44673 17.0395 5.94353 16.9108C3.22019 16.3587 1.17762 13.9666 1.17762 11.0777V11.0041C1.96883 11.4457 2.88896 11.7217 3.86414 11.7585C2.26325 10.6912 1.21443 8.86954 1.21443 6.80861C1.21443 5.70457 1.50879 4.69252 2.02405 3.80926C4.94982 7.41586 9.34769 9.77114 14.2791 10.0288C14.1871 9.58717 14.1319 9.1272 14.1319 8.66716C14.1319 5.39175 16.7817 2.72363 20.0754 2.72363C21.7867 2.72363 23.3324 3.44127 24.4181 4.60053C25.7613 4.34293 27.0494 3.84608 28.1903 3.16526C27.7486 4.54537 26.8102 5.70463 25.5773 6.44062C26.7734 6.31187 27.9327 5.98058 28.9999 5.5206C28.1904 6.69822 27.1783 7.74703 26.019 8.59353Z" fill="#101010" fill-opacity="0.6"/>
</g>
<defs>
<clipPath id="clip0_2228_3262">
<rect width="29" height="29" fill="white"/>
</clipPath>
</defs>
</svg>
