<svg width="24" height="24" viewBox="0 0 24 24" fill="none" xmlns="http://www.w3.org/2000/svg">
<path d="M22.4997 9.18607C22.5013 9.90031 22.3613 10.6078 22.0878 11.2675C21.8142 11.9273 21.4125 12.5263 20.906 13.0298L12.5341 21.5254C12.4643 21.5963 12.3811 21.6526 12.2894 21.691C12.1977 21.7294 12.0992 21.7492 11.9997 21.7492C11.9003 21.7492 11.8018 21.7294 11.7101 21.691C11.6183 21.6526 11.5352 21.5963 11.4654 21.5254L3.0935 13.0298C2.07283 12.0104 1.49893 10.6273 1.49805 9.1847C1.49717 7.74214 2.06938 6.35831 3.08881 5.33764C4.10823 4.31697 5.49137 3.74307 6.93393 3.74219C8.3765 3.74131 9.76033 4.31352 10.781 5.33295L11.9997 6.47201L13.2269 5.3292C13.9886 4.57131 14.9577 4.05608 16.012 3.84854C17.0662 3.641 18.1584 3.75047 19.1505 4.16311C20.1426 4.57576 20.9902 5.27309 21.5863 6.16706C22.1824 7.06104 22.5002 8.11158 22.4997 9.18607Z" fill="#D89593"/>
</svg>
