<svg width="28" height="28" viewBox="0 0 30 30" fill="none" xmlns="http://www.w3.org/2000/svg">
<rect x="0.5" y="0.5" width="29" height="29" rx="14.5" fill="#F3F1EF"/>
<rect x="0.5" y="0.5" width="29" height="29" rx="14.5" stroke="#DBDBDB"/>
<path d="M12.3719 20.9131C12.3128 20.9722 12.2659 21.0424 12.234 21.1197C12.202 21.1969 12.1855 21.2797 12.1855 21.3633C12.1855 21.4469 12.202 21.5297 12.234 21.607C12.2659 21.6842 12.3128 21.7544 12.3719 21.8135C12.4309 21.8726 12.5011 21.9195 12.5783 21.9515C12.6554 21.9835 12.7382 22 12.8217 22C12.9053 22 12.988 21.9835 13.0652 21.9515C13.1424 21.9195 13.2125 21.8726 13.2716 21.8135L19.6299 15.4502C19.689 15.3911 19.7359 15.3209 19.7679 15.2437C19.7999 15.1664 19.8164 15.0836 19.8164 15C19.8164 14.9164 19.7999 14.8336 19.7679 14.7563C19.7359 14.6791 19.689 14.6089 19.6299 14.5498L13.2716 8.18648C13.1523 8.06708 12.9904 8 12.8217 8C12.653 8 12.4912 8.06708 12.3719 8.18648C12.2526 8.30588 12.1855 8.46783 12.1855 8.63669C12.1855 8.80554 12.2526 8.96749 12.3719 9.08689L18.2812 15L12.3719 20.9131Z" fill="#101010" stroke="#101010" stroke-width="0.8"/>
</svg>
