<svg width="20" height="20" viewBox="0 0 24 24" fill="none" xmlns="http://www.w3.org/2000/svg">
<path d="M16.5 14.6253C15.4954 14.6237 14.5251 14.9906 13.7728 15.6565L9.94691 13.2003C10.1844 12.4179 10.1844 11.5826 9.94691 10.8003L13.7728 8.34402C14.5175 8.99848 15.4738 9.36164 16.4652 9.36652C17.4566 9.3714 18.4163 9.01767 19.1674 8.37056C19.9185 7.72345 20.4103 6.8266 20.5522 5.84539C20.694 4.86417 20.4763 3.86476 19.9392 3.03143C19.4021 2.1981 18.5818 1.58706 17.6296 1.31098C16.6774 1.0349 15.6575 1.11239 14.758 1.52917C13.8584 1.94595 13.1399 2.67391 12.7349 3.57881C12.3298 4.48372 12.2656 5.50456 12.5541 6.45308L8.72722 8.90652C8.13211 8.38058 7.39782 8.03763 6.61254 7.91885C5.82727 7.80007 5.0244 7.9105 4.30036 8.2369C3.57632 8.56329 2.9619 9.09176 2.53089 9.75884C2.09988 10.4259 1.87061 11.2032 1.87061 11.9975C1.87061 12.7917 2.09988 13.569 2.53089 14.2361C2.9619 14.9031 3.57632 15.4316 4.30036 15.758C5.0244 16.0844 5.82727 16.1948 6.61254 16.0761C7.39782 15.9573 8.13211 15.6143 8.72722 15.0884L12.5532 17.5503C12.3007 18.3805 12.3165 19.2692 12.5983 20.0899C12.8802 20.9106 13.4136 21.6216 14.1228 22.1216C14.8321 22.6216 15.6809 22.8853 16.5486 22.875C17.4163 22.8647 18.2586 22.5811 18.9558 22.0644C19.653 21.5477 20.1695 20.8243 20.4318 19.9972C20.6941 19.17 20.6889 18.2812 20.4168 17.4572C20.1448 16.6331 19.6199 15.9159 18.9166 15.4075C18.2134 14.899 17.3678 14.6253 16.5 14.6253ZM16.5 3.37526C16.8709 3.37526 17.2334 3.48523 17.5417 3.69126C17.8501 3.89729 18.0904 4.19012 18.2323 4.53273C18.3742 4.87534 18.4114 5.25234 18.339 5.61606C18.2667 5.97977 18.0881 6.31387 17.8259 6.57609C17.5636 6.83831 17.2295 7.01689 16.8658 7.08924C16.5021 7.16158 16.1251 7.12445 15.7825 6.98254C15.4399 6.84062 15.1471 6.6003 14.941 6.29196C14.735 5.98362 14.625 5.6211 14.625 5.25026C14.625 4.75298 14.8226 4.27607 15.1742 3.92444C15.5258 3.57281 16.0028 3.37526 16.5 3.37526ZM6.00003 13.8753C5.62919 13.8753 5.26668 13.7653 4.95834 13.5593C4.65 13.3532 4.40967 13.0604 4.26776 12.7178C4.12585 12.3752 4.08871 11.9982 4.16106 11.6345C4.23341 11.2708 4.41199 10.9367 4.67421 10.6744C4.93643 10.4122 5.27053 10.2336 5.63424 10.1613C5.99795 10.0889 6.37495 10.1261 6.71757 10.268C7.06018 10.4099 7.35301 10.6502 7.55904 10.9586C7.76507 11.2669 7.87503 11.6294 7.87503 12.0003C7.87503 12.4975 7.67749 12.9745 7.32586 13.3261C6.97423 13.6777 6.49732 13.8753 6.00003 13.8753ZM16.5 20.6253C16.1292 20.6253 15.7667 20.5153 15.4583 20.3093C15.15 20.1032 14.9097 19.8104 14.7678 19.4678C14.6258 19.1252 14.5887 18.7482 14.6611 18.3845C14.7334 18.0208 14.912 17.6867 15.1742 17.4244C15.4364 17.1622 15.7705 16.9836 16.1342 16.9113C16.498 16.8389 16.875 16.8761 17.2176 17.018C17.5602 17.1599 17.853 17.4002 18.059 17.7086C18.2651 18.0169 18.375 18.3794 18.375 18.7503C18.375 19.2475 18.1775 19.7245 17.8259 20.0761C17.4742 20.4277 16.9973 20.6253 16.5 20.6253Z" fill="#101010" stroke="white" stroke-width="0.3"/>
</svg>
