<svg width="24" height="24" viewBox="0 0 24 24" fill="none" xmlns="http://www.w3.org/2000/svg">
<path d="M12.0004 2.40039C6.69717 2.40039 2.40039 6.69717 2.40039 12.0004C2.40039 17.3036 6.69717 21.6004 12.0004 21.6004C17.3036 21.6004 21.6004 17.3036 21.6004 12.0004C21.6004 6.69717 17.3036 2.40039 12.0004 2.40039ZM14.2107 15.9526L10.7965 13.4714C10.6765 13.3823 10.6068 13.243 10.6068 13.0959V6.58104C10.6068 6.32555 10.8159 6.11652 11.0714 6.11652H12.9294C13.1849 6.11652 13.3939 6.32555 13.3939 6.58104V11.9114L15.852 13.6997C16.061 13.8507 16.1036 14.141 15.9526 14.3501L14.861 15.852C14.7101 16.0572 14.4197 16.1036 14.2107 15.9526Z" fill="#101010"/>
</svg>
